<?xml version="1.0" encoding="UTF-8"?><svg id="Layer_1" xmlns="http://www.w3.org/2000/svg" viewBox="0 0 1080 463.8"><defs><style>.cls-1{fill:#004682;}.cls-2{fill:#fff;}.cls-3{fill:#01794c;}.cls-4{fill:#ccab00;}</style></defs><g><path class="cls-4" d="M990.28,342.47c-30.02,9.19-25.54,15.68-71.03,7.15-8.19-1.55-41.28-8.25-18.45-20.52,10.84-5.81,22.56-8.19,22.56-8.19,0,0,4.11,9.22,14.86,12.3,19.24,5.48,52.06,9.25,52.06,9.25"/><path class="cls-4" d="M976.67,317.05c-9.22,0-24.6-2.28-24.6-2.28l13.06-7.7s20.76,9.99,11.54,9.99m86.13-11.51c-4.63-16.93-38.45-30.78-38.45-30.78,0,0-7.83-4.57-23.14-4.57-.49,0-1,0-1.52,.03-1.04,.03-2.1,.06-3.17,.12-.55,.03-1.09,.06-1.64,.12,10.93,3.96,31.11,10.56,39.09,15.07,11.23,6.33,24.57,21.86,20.76,38.45-4.17,17.99-25.54,44.78-26.88,46.43,9.38-17.69,14.43-31.11,16.5-41.47,2.37-11.66,.97-19.39-2.16-24.93-4.84-8.4-13.76-11.69-19.76-15.8-6.45-4.41-41.62-14.16-44.42-14.92-17.99,4.69-15.19,27.61-19.79,29.17l-19.49,14.34s6.64,4.9,16.35,7.37c1.61,.39,3.32,.76,5.08,1,.88,.12,1.8,.21,2.71,.27,.91,.06,1.86,.09,2.8,.09,2.83,0,5.48,.18,7.92,.48,1.61,.18,3.17,.46,4.63,.76,8.01,1.68,13.49,4.84,16.65,8.01,4.63,4.6,5.08,13.76,6.15,24.6,1.28,12.79-2.83,36.35-2.83,36.35,0,0,18.02-5.42,33.58-20.82,.52-.49,1.04-1.04,1.55-1.58,.27-.27,.52-.55,.76-.82s.52-.55,.76-.82c.46-.48,.95-1.03,1.43-1.61,.33-.37,.67-.76,1-1.19,.03-.03,.06-.09,.09-.12,.15-.18,.3-.36,.46-.55,.18-.21,.37-.46,.55-.7,.21-.27,.43-.52,.67-.82,.64-.76,1.25-1.58,1.89-2.4,.55-.7,1.1-1.43,1.65-2.16,3.29-4.44,6.7-9.38,9.62-14,2.44-3.84,4.54-7.43,5.97-10.32,4.63-9.22,8.07-19.61,4.63-32.27"/></g><path class="cls-2" d="M977.64,273.36c-.11-.03,.41-.17,1.4-.34-.41,.1-.8,.18-1.21,.29-.07,.02-.12,.04-.19,.05"/><g><path class="cls-3" d="M909.39,201.29c27.08,13.28,43.15,30.2,43.15,30.2,0,0-44.37-21.72-75.33-32.24-27.07-9.2-65.36-17.83-65.36-17.83,0,0,51.7-2.6,97.53,19.87"/><path class="cls-3" d="M901.03,280.17c-5.73,0-10.37-4.65-10.37-10.38,0-2.82,1.13-5.36,2.96-7.23,5.78,2.08,11.63,4,17.61,5.63,.08,.53,.16,1.06,.16,1.61,0,5.73-4.63,10.38-10.36,10.38"/><path class="cls-3" d="M683.41,463.8c55.41,0,91.64-30.44,91.64-96.2v-120.56h-41.71v118.73c0,40.79-21.31,59.37-49.93,59.37s-49.93-18.57-49.93-59.37v-118.73h-41.71v120.56c0,65.76,36.23,96.2,91.64,96.2"/></g><g><path class="cls-1" d="M1058.17,337.81c-1.43,2.89-3.53,6.48-5.97,10.32-2.92,4.63-6.33,9.56-9.62,14-.55,.73-1.09,1.46-1.64,2.16-.64,.82-1.25,1.64-1.89,2.4-.24,.3-.46,.55-.67,.82-.18,.24-.37,.49-.55,.7-.15,.18-.27,.37-.43,.55-.03,.03-.09,.09-.12,.12-.34,.43-.67,.82-1,1.19-.46,.58-.94,1.13-1.4,1.61-.24,.27-.52,.55-.79,.82-.24,.27-.49,.55-.76,.82-.52,.55-1.04,1.1-1.55,1.58-15.56,15.4-33.58,20.82-33.58,20.82,0,0,4.11-23.56,2.83-36.35-1.07-10.84-1.52-20-6.15-24.6-3.17-3.17-8.65-6.33-16.66-8.01-1.46-.3-3.01-.58-4.63-.76-2.43-.27-5.08-.46-7.91-.46-.94,0-1.89-.03-2.8-.12-.91-.06-1.83-.15-2.71-.27-1.77-.24-3.47-.58-5.09-1-9.71-2.47-16.35-7.37-16.35-7.37l19.49-14.34c4.59-1.55,1.79-24.48,19.79-29.17,.33-.09,.61-.18,1.4-.36,5.69-1.34,10.84-2.13,15.47-2.47,.55-.06,1.09-.09,1.64-.12,1.09-.09,2.13-.12,3.17-.12,.52-.03,1.04-.03,1.52-.03,15.31,0,23.14,4.57,23.14,4.57,0,0,33.82,13.85,38.45,30.78,3.44,12.67,0,23.05-4.63,32.27m-138.92,11.81c-8.19-1.55-41.28-8.25-18.45-20.52,10.84-5.81,22.56-8.19,22.56-8.19,0,0,4.11,9.22,14.86,12.3,19.24,5.48,52.06,9.25,52.06,9.25-30.02,9.2-25.54,15.68-71.03,7.15M805.37,54.34h-.06l.06-.06v.06Zm272.62,247.33c-6.21-22.83-38.05-37.57-47.92-41.65-.64-.3-1.83-.85-3.47-1.49,1.92-3.11,3.53-6.64,4.93-10.6,1.55-4.45,2.44-9.99,2.44-15.19,0-6.76-1.46-16.62-8.43-24.96-10.35-12.42-23.08-21.04-51.69-22.86-9.1-.58-19.76-3.07-24.3-4.2-14.86-16.9-26.7-33.67-35.95-59.67-9.56-26.79-15.04-62.93-15.07-63.29l-1.07-7.13-17.2,12.91c-19.18,9.44-25.88,37.51-25.91,37.78,0,.09,0,.15-.03,.21-6.91-7.76-13.61-16.2-20.24-25.54-10.26-14.4-12.55-24.05-12.64-24.45l-6-28.5-21.43,19.58c-6.3,5.72-13.61,18.36-13.67,35.16-23.72-24.69-27.86-45.3-28.01-46.18l-5.45-31.6-22.65,22.62c-10.08,10.11-24.84,36.74-25.73,63.02-1.16-2.71-1.95-4.72-2.25-5.57l-.03-.03-7.95-22.41-18.3,15.25c-11.6,9.68-18.54,28.53-18.54,50.45,0,2.71,.58,7.79,1.43,13.76v.06c9.26,34.98,31.57,52.79,56.54,61.19,.24-.15,.49-.3,.73-.46,0,0-21.92-12.27-30.78-30.78-17.93-37.42-10.26-71.76,2.07-82.02,0,0,9.29,26.33,25.61,43.08,21.55,22.04,54.34,26.64,54.34,26.64-20.49-13.82-30.75-23.56-42.53-51.24-9.47-22.19,5.63-57.42,17.93-69.72,0,0,4.11,26.64,34.86,57.39,.7,.73,1.76,1.64,3.04,2.74,.49,.43,1,.85,1.55,1.31,1.13,.91,2.37,1.89,3.71,2.96,.55,.43,1.09,.85,1.67,1.31,.15,.09,.27,.22,.43,.3,.37,.27,.73,.58,1.1,.85,.36,.3,.73,.58,1.13,.85,.18,.15,.37,.3,.58,.46,.15,.12,.28,.22,.43,.34,2.19,1.67,4.5,3.41,6.88,5.2,.64,.49,1.28,.95,1.92,1.43,.85,.64,1.7,1.25,2.56,1.89,.85,.64,1.71,1.28,2.56,1.92,1.7,1.28,3.41,2.53,5.08,3.75,.82,.61,1.65,1.19,2.47,1.79,1.61,1.19,3.17,2.31,4.66,3.38,1.64,1.19,3.2,2.28,4.6,3.32,.82,.61,1.61,1.19,2.34,1.7,.73,.55,1.43,1,2.04,1.46,.4,.27,.76,.55,1.09,.79,.37,.24,.67,.46,.95,.67,.82,.58,1.34,.94,1.46,1.04-.97-1.22-21.8-27.86-25.09-43.54-4.6-22.04,7.18-32.3,7.18-32.82,0,.52,2.28,12.33,15.37,30.75,32.82,46.15,57.94,59.49,57.94,59.49-10.26-13.85-9.22-30.26-7.67-41.53,1.25-9.19,7.15-23.59,12.79-24.11,0,0,4.11,18.48,14.37,47.16,11.26,31.6,25.63,50.23,42.28,68.75,.18,.18,17.99,5.17,32.55,6.12,24.11,1.52,32.3,7.67,39.97,16.9,6.97,8.37,4.29,20.67,3.08,24.11-4.11,11.78-9.9,15.74-17.41,17.41-13.85,3.08-23.56,1.04-33.82-2.04,0,0-.12,49.29-45.63,52.79-6.67,.52-31.33,21.34-45.64,21.01-24.39-.55-42.8-3.1-58.48-7.03,26.64,12.3,59.91,23.81,62.47,23.81h.09c4.87,8.98,16.32,14.61,37.2,18.51,31.42,5.91,54.92,1.34,68.44-3.1,0,.73,.03,1.49,.03,2.28,0,9.47-2.04,23.29-2.83,27.83l-4.57,26.43,25.7-7.7c2.56-.79,25.57-8.19,44.2-28.83,8.28-9.16,20.61-27.1,25.82-37.57,3.62-7.24,7.79-17.14,7.79-29.41,0-4.87-.67-9.8-2.01-14.67"/><path class="cls-1" d="M976.67,317.05c-9.22,0-24.6-2.28-24.6-2.28l13.06-7.7s20.76,9.99,11.54,9.99"/><path class="cls-1" d="M881.76,257.93c1.11,.44,2.23,.89,3.38,1.34,3.89,1.52,7.79,3.03,11.72,4.44,4.31,1.55,8.66,2.98,13.11,4.19,2.22,.6,4.46,1.15,6.73,1.63-.93,9.56-9,17.05-18.79,17.05-10.42,0-18.89-8.47-18.89-18.89,0-3.58,1.01-6.91,2.75-9.76m-35.12-17.15c6.37,11.74,17.67,31.39,28.53,44.28,29.13,34.59,62.57-6.87,62.57-6.87,0,0-.01-2.75-1.81-6.5,1.86,.02,3.73,0,5.65-.12,20.29-1.15,22.9-21.64,13.05-32.2,1.27,9.69-4.27,19.91-18.42,20.71-3.83,.22-7.52,.25-11.1,.11-1.78-.07-3.53-.19-5.26-.34-.09,0-.17-.02-.26-.02-1.71-.16-3.41-.36-5.08-.6,.09,.01,.17,.03,.25,.04-2.14-.3-4.25-.68-6.34-1.12-.08-.02-.16-.03-.24-.05-.88-.19-1.76-.39-2.63-.6-.16-.04-.31-.08-.47-.11-.84-.21-1.68-.42-2.51-.65-.17-.05-.34-.1-.5-.14-.84-.23-1.68-.47-2.51-.73,0,0-.01,0-.02,0-1.63-.5-3.26-1.05-4.89-1.64-.31-.11-.62-.22-.93-.33-.55-.2-1.1-.42-1.65-.63-.51-.2-1.03-.39-1.54-.6-.51-.2-1.02-.41-1.52-.63-.49-.21-.99-.42-1.49-.63-.94-.41-1.88-.83-2.83-1.26-.35-.16-.71-.32-1.06-.48-1.28-.6-2.57-1.22-3.86-1.86-1.78-.89-3.51-1.76-5.22-2.62-.31-.16-.63-.32-.93-.47-1.66-.84-3.29-1.67-4.88-2.49-.26-.14-.52-.27-.78-.4-24.91-12.85-40.18-22.69-45.83-36.24,.19,1.67,.48,3.46,.94,5.45,2.71,11.73,9.95,20.98,23.56,29.78"/><path class="cls-1" d="M497.46,463.8c19.48,0,45.97-4.26,60.28-13.09v-42.01c-14.92,8.83-34.71,14.31-54.19,14.31-45.36,0-73.67-28.92-73.67-69.41s26.48-70.02,72.76-70.02c20.09,0,39.58,5.79,55.1,14.92v-41.71c-15.83-8.83-40.19-13.39-59.98-13.39-67.28,0-111.73,51.45-111.73,110.21s45.06,110.21,111.42,110.21m-222.85,0c27.4,0,59.98-8.22,77.94-20.7v-104.73h-82.2v36.23h42.01v42.32c-10.35,4.87-21.01,6.7-32.57,6.7-45.36,0-76.11-28.62-76.11-69.72s31.66-70.02,77.94-70.02c19.49,0,42.93,5.18,59.06,15.83v-42.62c-19.49-9.44-45.67-13.7-64.85-13.7-64.54,0-114.78,44.75-114.78,109.9s47.8,110.51,113.56,110.51M0,460.14H41.4v-78.55H127.87v-38.66H41.4v-56.93h103.51v-38.97H0v213.11Z"/></g></svg>